<?xml version="1.0" standalone="no"?>
<!DOCTYPE svg PUBLIC "-//W3C//DTD SVG 20010904//EN"
 "http://www.w3.org/TR/2001/REC-SVG-20010904/DTD/svg10.dtd">
<svg version="1.0" xmlns="http://www.w3.org/2000/svg"
 width="260.000000pt" height="260.000000pt" viewBox="0 0 260.000000 260.000000"
 preserveAspectRatio="xMidYMid meet">
<metadata>
Created by potrace 1.11, written by Peter Selinger 2001-2013
</metadata>
<g transform="translate(0.000000,260.000000) scale(0.100000,-0.100000)"
fill="#000000" stroke="none">
<path d="M670 1315 l0 -685 130 0 130 0 0 285 0 285 85 0 85 0 0 135 0 135
-85 0 -85 0 0 129 0 130 135 3 135 3 0 -552 0 -553 120 0 120 0 0 222 c0 122
3 219 6 216 3 -3 20 -102 37 -219 l32 -214 72 -3 72 -3 7 48 c4 26 19 127 34
223 l28 175 1 -222 1 -223 125 0 125 0 0 685 0 685 -150 0 c-147 0 -150 0
-155 -22 -2 -13 -21 -111 -40 -218 -20 -107 -40 -204 -44 -214 -4 -12 -23 68
-51 218 l-44 236 -413 0 -413 0 0 -685z"/>
</g>
</svg>
